<svg id="svg" version="1.1" xmlns="http://www.w3.org/2000/svg" xmlns:xlink="http://www.w3.org/1999/xlink" width="400" height="400" viewBox="0, 0, 400,400"><g id="svgg"><path id="path0" d="M302.667 15.067 C 302.520 15.213,302.390 22.638,302.377 31.567 C 302.348 52.732,302.617 52.004,294.692 52.384 L 290.200 52.600 290.079 56.200 C 290.012 58.180,290.065 60.385,290.197 61.100 L 290.436 62.400 299.771 62.400 L 309.106 62.400 310.753 60.753 L 312.400 59.106 312.400 55.981 C 312.400 51.300,313.696 50.000,318.363 50.000 L 321.632 50.000 323.216 48.335 L 324.800 46.670 324.798 37.635 C 324.797 28.796,324.775 28.557,323.798 26.632 C 322.912 24.884,322.800 24.167,322.800 20.212 C 322.800 17.283,322.636 15.596,322.320 15.280 C 321.800 14.760,303.175 14.558,302.667 15.067 M140.216 52.900 C 140.129 53.175,139.983 55.234,139.891 57.476 C 139.586 64.918,140.597 64.553,119.600 64.800 L 102.600 65.000 102.373 69.400 C 102.008 76.466,101.293 77.195,94.713 77.206 C 89.945 77.214,90.126 77.034,89.915 82.000 C 89.584 89.759,89.627 89.735,75.600 90.000 L 65.000 90.200 64.800 101.000 C 64.542 114.926,64.802 114.454,57.200 114.794 L 52.600 115.000 52.400 125.819 C 52.141 139.839,52.332 139.502,44.400 139.958 L 40.200 140.200 40.000 150.819 C 39.741 164.583,39.615 164.800,31.893 164.800 C 29.523 164.800,27.985 164.975,27.680 165.280 C 27.314 165.646,27.200 174.085,27.200 200.820 C 27.200 225.448,27.068 236.259,26.757 237.152 C 26.085 239.079,24.482 239.691,19.400 239.964 L 15.000 240.200 15.000 293.800 L 15.000 347.400 19.400 347.627 C 27.651 348.053,27.200 346.881,27.200 367.907 C 27.200 380.077,27.322 384.362,27.680 384.720 C 28.395 385.435,121.725 385.415,122.314 384.700 C 122.541 384.425,122.788 382.179,122.863 379.708 C 122.994 375.417,123.049 375.167,124.109 374.108 L 125.218 373.000 167.909 372.788 C 191.389 372.671,211.005 372.425,211.500 372.241 C 212.399 371.907,212.400 371.892,212.400 362.421 L 212.400 352.935 211.444 352.424 C 210.918 352.142,210.258 351.482,209.976 350.956 C 209.499 350.064,209.239 350.000,206.092 350.000 C 202.790 350.000,202.692 349.972,201.360 348.640 L 200.000 347.280 200.000 331.187 L 200.000 315.094 201.428 313.747 C 202.799 312.454,202.983 312.400,205.981 312.400 L 209.106 312.400 210.753 310.753 L 212.400 309.106 212.400 305.981 C 212.400 301.300,213.696 300.000,218.363 300.000 L 221.632 300.000 223.216 298.335 C 224.782 296.688,224.800 296.635,224.800 293.563 C 224.800 288.911,226.105 287.600,230.737 287.600 L 233.979 287.600 235.789 285.789 L 237.600 283.979 237.600 280.737 C 237.600 276.062,238.896 274.800,243.697 274.800 C 245.850 274.800,247.149 274.618,247.569 274.257 C 249.121 272.921,250.846 272.800,268.400 272.800 C 290.717 272.800,289.522 272.368,289.964 280.600 L 290.200 285.000 294.800 285.219 C 301.672 285.547,302.017 285.937,302.386 293.800 C 302.688 300.252,302.526 300.000,306.356 300.000 C 309.225 300.000,309.504 299.926,309.976 299.044 C 310.258 298.518,310.918 297.858,311.444 297.576 C 312.336 297.099,312.400 296.839,312.400 293.692 C 312.400 290.390,312.428 290.292,313.760 288.960 L 315.120 287.600 324.549 287.600 L 333.979 287.600 335.789 285.789 L 337.600 283.979 337.600 274.549 L 337.600 265.120 338.960 263.760 C 340.292 262.428,340.390 262.400,343.692 262.400 C 346.839 262.400,347.099 262.336,347.576 261.444 C 347.858 260.918,348.518 260.258,349.044 259.976 L 350.000 259.465 350.000 237.280 L 350.000 215.094 351.428 213.747 C 352.799 212.454,352.983 212.400,355.981 212.400 L 359.106 212.400 360.753 210.753 L 362.400 209.106 362.400 200.000 L 362.400 190.894 360.753 189.247 L 359.106 187.600 355.981 187.600 C 352.983 187.600,352.799 187.546,351.428 186.253 L 350.000 184.906 350.000 169.221 L 350.000 153.537 348.232 151.768 L 346.463 150.000 343.445 150.000 C 340.641 150.000,340.328 149.912,339.014 148.759 L 337.600 147.517 337.600 131.769 L 337.600 116.021 335.789 114.211 L 333.979 112.400 330.878 112.400 C 326.031 112.400,324.800 111.043,324.800 105.698 C 324.800 102.670,324.753 102.511,323.481 101.278 L 322.162 100.000 312.441 100.000 L 302.720 100.000 301.360 101.360 C 300.025 102.695,300.000 102.783,300.000 106.146 C 300.000 109.408,299.940 109.640,298.759 110.986 L 297.517 112.400 287.772 112.400 L 278.028 112.400 276.614 113.641 L 275.200 114.883 275.200 118.441 L 275.200 122.000 273.600 123.600 L 272.000 125.200 268.441 125.200 L 264.883 125.200 263.641 126.614 C 262.460 127.960,262.400 128.192,262.400 131.454 C 262.400 136.462,261.252 137.600,256.200 137.600 C 251.131 137.600,250.000 138.731,250.000 143.800 C 250.000 148.869,248.869 150.000,243.800 150.000 C 238.731 150.000,237.600 151.131,237.600 156.200 C 237.600 161.252,236.462 162.400,231.454 162.400 C 228.192 162.400,227.960 162.460,226.614 163.641 L 225.200 164.883 225.200 168.672 C 225.200 172.327,225.241 172.503,226.369 173.631 L 227.538 174.800 243.189 174.800 C 262.764 174.800,262.400 174.680,262.400 181.136 L 262.400 184.494 263.953 186.047 L 265.506 187.600 268.864 187.600 C 273.996 187.600,275.200 188.874,275.200 194.302 C 275.200 198.946,276.342 200.000,281.372 200.000 L 284.906 200.000 286.253 201.428 L 287.600 202.857 287.600 212.476 L 287.600 222.094 286.047 223.647 C 284.498 225.196,284.486 225.200,281.247 225.200 L 278.000 225.200 276.400 223.600 L 274.800 222.000 274.800 218.441 L 274.800 214.883 273.386 213.641 C 272.040 212.460,271.808 212.400,268.546 212.400 C 263.538 212.400,262.400 211.252,262.400 206.200 C 262.400 202.776,262.378 202.698,261.040 201.360 L 259.680 200.000 231.200 200.000 L 202.720 200.000 201.360 201.360 C 200.025 202.695,200.000 202.783,200.000 206.146 C 200.000 209.408,199.940 209.640,198.759 210.986 L 197.517 212.400 187.772 212.400 L 178.028 212.400 176.614 213.641 L 175.200 214.883 175.200 224.688 L 175.200 234.494 173.647 236.047 L 172.094 237.600 162.407 237.600 L 152.720 237.600 151.360 238.960 C 149.277 241.043,149.277 246.557,151.360 248.640 L 152.720 250.000 168.813 250.000 L 184.906 250.000 186.253 251.428 L 187.600 252.857 187.600 263.828 L 187.600 274.800 192.100 274.803 C 198.834 274.807,199.967 275.748,199.987 281.353 L 200.000 284.906 198.572 286.253 C 196.510 288.197,191.196 288.299,189.106 286.434 L 187.800 285.269 187.600 280.334 L 187.400 275.400 182.687 275.287 L 177.974 275.174 176.387 273.587 L 174.800 272.000 174.800 268.441 L 174.800 264.883 173.386 263.641 L 171.972 262.400 150.000 262.400 L 128.028 262.400 126.614 263.641 L 125.200 264.883 125.200 268.441 L 125.200 272.000 123.600 273.600 L 122.000 275.200 118.441 275.200 L 114.883 275.200 113.641 276.614 C 112.460 277.960,112.400 278.192,112.400 281.454 C 112.400 286.462,111.252 287.600,106.200 287.600 C 102.776 287.600,102.698 287.622,101.360 288.960 L 100.000 290.320 100.000 299.946 L 100.000 309.572 98.759 310.986 L 97.517 312.400 93.987 312.400 C 88.778 312.400,87.600 313.542,87.600 318.594 L 87.600 322.094 86.014 323.680 L 84.429 325.265 80.040 325.140 C 77.627 325.071,75.526 325.141,75.371 325.295 C 75.217 325.449,75.127 330.267,75.170 336.001 C 75.274 349.914,75.271 349.920,67.200 350.098 L 62.600 350.200 62.488 355.081 C 62.335 361.754,61.780 362.400,56.211 362.400 L 52.483 362.400 51.241 360.986 C 49.406 358.896,49.363 353.526,51.166 351.506 L 52.331 350.200 57.266 350.000 L 62.200 349.800 62.400 338.669 L 62.600 327.537 64.128 326.137 L 65.657 324.737 70.003 324.861 C 72.393 324.929,74.474 324.859,74.629 324.705 C 74.783 324.551,74.873 319.724,74.830 313.979 C 74.729 300.504,74.950 300.025,81.287 300.009 C 84.740 300.000,84.787 299.986,86.187 298.587 L 87.600 297.173 87.600 287.334 L 87.600 277.494 89.028 276.147 C 90.426 274.829,90.533 274.800,93.950 274.800 C 97.376 274.800,97.468 274.775,98.722 273.481 L 100.000 272.162 100.000 256.241 L 100.000 240.320 98.640 238.960 C 97.302 237.622,97.224 237.600,93.800 237.600 C 88.748 237.600,87.600 236.462,87.600 231.454 C 87.600 228.192,87.540 227.960,86.359 226.614 L 85.117 225.200 81.559 225.200 L 78.000 225.200 76.413 223.613 L 74.826 222.026 74.713 217.313 L 74.600 212.600 69.666 212.400 L 64.731 212.200 63.566 210.894 C 61.701 208.804,61.803 203.490,63.747 201.428 L 65.094 200.000 68.647 200.013 C 74.252 200.033,75.193 201.166,75.197 207.900 L 75.200 212.400 86.172 212.400 L 97.143 212.400 98.572 213.747 L 100.000 215.094 100.000 218.669 C 100.000 222.187,100.021 222.263,101.319 223.522 L 102.638 224.800 112.550 224.800 L 122.462 224.800 123.631 223.631 C 124.744 222.518,124.800 222.294,124.800 218.984 L 124.800 215.506 126.353 213.953 L 127.906 212.400 131.406 212.400 C 136.458 212.400,137.600 211.222,137.600 206.013 L 137.600 202.483 139.014 201.241 C 140.360 200.060,140.592 200.000,143.854 200.000 C 147.217 200.000,147.305 199.975,148.640 198.640 L 150.000 197.280 150.000 175.000 L 150.000 152.720 148.640 151.360 C 147.305 150.025,147.217 150.000,143.854 150.000 C 140.592 150.000,140.360 149.940,139.014 148.759 L 137.600 147.517 137.600 143.987 C 137.600 140.528,137.573 140.428,136.253 139.028 L 134.906 137.600 125.433 137.600 C 112.919 137.600,112.400 137.329,112.400 130.789 C 112.400 126.109,111.479 125.201,106.731 125.197 C 101.299 125.193,100.032 123.958,100.013 118.647 L 100.000 115.094 101.428 113.747 L 102.857 112.400 112.476 112.400 L 122.094 112.400 123.647 113.953 L 125.200 115.506 125.200 118.984 C 125.200 122.294,125.256 122.518,126.369 123.631 L 127.538 124.800 137.069 124.803 C 149.466 124.806,149.965 125.056,149.987 131.287 C 150.006 136.410,151.211 137.600,156.383 137.600 C 161.500 137.600,162.400 138.500,162.400 143.617 C 162.400 147.154,162.408 147.181,163.813 148.587 L 165.227 150.000 175.000 150.000 L 184.773 150.000 186.187 148.587 C 187.592 147.181,187.600 147.154,187.600 143.617 C 187.600 138.500,188.500 137.600,193.617 137.600 C 198.789 137.600,199.994 136.410,200.013 131.287 C 200.032 126.049,201.319 124.807,206.731 124.803 C 209.877 124.800,210.126 124.735,211.231 123.631 L 212.400 122.462 212.400 112.659 L 212.400 102.857 213.747 101.428 L 215.094 100.000 218.669 100.000 C 223.776 100.000,224.800 98.983,224.800 93.909 C 224.800 90.539,224.832 90.423,226.147 89.028 L 227.494 87.600 237.334 87.600 L 247.173 87.600 248.587 86.187 L 250.000 84.773 250.000 75.000 L 250.000 65.227 248.587 63.813 C 247.181 62.408,247.154 62.400,243.617 62.400 C 238.580 62.400,237.682 61.530,237.515 56.488 L 237.400 53.006 236.200 52.750 C 233.704 52.219,140.386 52.364,140.216 52.900 " stroke="none" fill="#6cbc34" fill-rule="evenodd"></path><path id="path1" d="M301.482 12.638 C 299.675 13.618,299.600 14.352,299.600 31.148 L 299.600 47.043 298.281 48.322 C 297.001 49.562,296.858 49.600,293.455 49.600 C 287.879 49.600,287.231 50.224,287.213 55.611 C 287.193 61.404,286.316 62.368,281.047 62.387 L 277.494 62.400 276.147 60.972 C 274.827 59.571,274.800 59.473,274.800 56.004 C 274.800 51.795,274.664 51.357,273.110 50.554 C 271.850 49.902,142.393 49.113,139.890 49.742 C 137.692 50.293,137.200 51.364,137.200 55.597 C 137.200 59.422,137.193 59.450,135.881 60.722 L 134.562 62.000 118.661 62.000 C 98.751 62.000,99.600 61.706,99.600 68.595 C 99.600 73.549,98.801 74.400,94.152 74.400 C 88.117 74.400,87.200 75.246,87.200 80.814 C 87.200 84.450,87.189 84.491,85.840 85.840 L 84.480 87.200 74.462 87.200 C 64.451 87.200,64.444 87.201,63.322 88.165 L 62.200 89.130 62.080 99.464 L 61.960 109.798 60.905 110.899 C 59.910 111.938,59.651 112.000,56.305 112.000 C 49.654 112.000,49.600 112.105,49.600 124.985 L 49.600 134.717 48.186 135.959 C 46.817 137.161,46.653 137.200,42.968 137.200 C 39.462 137.200,39.087 137.277,38.182 138.182 L 37.200 139.164 37.200 149.303 L 37.200 159.443 35.881 160.722 C 34.614 161.949,34.431 162.000,31.268 162.000 C 23.804 162.000,24.400 158.678,24.400 200.299 L 24.400 234.879 23.158 236.040 C 21.970 237.149,21.750 237.200,18.180 237.200 C 14.808 237.200,14.335 237.294,13.322 238.165 L 12.200 239.131 12.096 293.177 C 11.973 357.015,11.221 350.400,18.595 350.400 C 21.609 350.400,22.060 350.502,23.169 351.436 L 24.400 352.471 24.400 368.255 C 24.400 385.511,24.397 385.489,26.756 387.168 C 28.142 388.155,120.399 388.516,123.183 387.546 C 124.971 386.923,125.600 385.235,125.600 381.067 C 125.600 377.988,125.686 377.623,126.635 376.674 L 127.670 375.639 171.135 375.441 C 219.393 375.220,222.867 375.103,224.037 373.656 C 224.808 372.701,225.257 353.657,224.552 351.818 C 224.078 350.584,222.178 350.000,218.633 350.000 C 215.267 350.000,215.210 349.983,213.813 348.587 L 212.400 347.173 212.400 331.268 L 212.400 315.362 213.917 313.881 L 215.434 312.400 219.135 312.400 C 224.288 312.400,224.800 311.896,224.800 306.819 C 224.800 303.225,224.809 303.192,226.247 301.601 L 227.693 300.000 231.021 300.000 C 236.694 300.000,237.600 299.105,237.600 293.498 C 237.600 288.698,238.706 287.600,243.539 287.600 C 249.106 287.600,250.000 286.686,250.000 280.994 C 250.000 277.661,250.008 277.634,251.338 276.620 L 252.676 275.600 268.777 275.600 L 284.879 275.600 286.040 276.842 C 287.149 278.030,287.200 278.250,287.200 281.820 C 287.200 287.266,287.648 287.712,293.394 287.992 C 299.714 288.299,299.422 287.741,299.797 300.242 L 300.095 310.156 301.253 311.314 C 302.404 312.466,302.436 312.472,306.592 312.336 C 312.084 312.157,312.155 312.088,312.338 306.762 C 312.475 302.799,312.493 302.733,313.852 301.375 L 315.227 300.000 324.787 300.000 C 337.408 300.000,337.600 299.903,337.600 293.498 C 337.600 288.698,338.706 287.600,343.539 287.600 C 349.897 287.600,350.000 287.395,350.000 274.787 L 350.000 265.227 351.375 263.852 C 352.733 262.493,352.799 262.475,356.762 262.338 C 362.792 262.130,362.180 264.805,362.310 238.093 L 362.420 215.414 363.891 213.907 L 365.362 212.400 369.099 212.400 C 372.534 212.400,372.916 212.320,373.818 211.418 L 374.800 210.436 374.800 200.000 L 374.800 189.564 373.818 188.582 C 372.916 187.680,372.534 187.600,369.099 187.600 L 365.362 187.600 363.881 186.083 L 362.400 184.566 362.400 168.452 L 362.400 152.338 361.231 151.169 C 360.108 150.047,359.915 150.000,356.391 150.000 C 352.750 150.000,352.709 149.989,351.360 148.640 L 350.000 147.280 350.000 131.466 C 350.000 111.771,350.215 112.400,343.498 112.400 C 340.253 112.400,340.121 112.362,338.898 111.100 L 337.639 109.800 337.520 99.665 L 337.400 89.529 336.278 88.565 C 335.270 87.699,334.785 87.600,331.531 87.600 L 327.906 87.600 326.353 86.047 L 324.800 84.494 324.800 80.829 C 324.800 75.706,324.294 75.200,319.171 75.200 L 315.506 75.200 313.953 73.647 L 312.400 72.094 312.400 68.728 L 312.400 65.362 313.917 63.881 L 315.434 62.400 319.135 62.400 C 324.288 62.400,324.800 61.896,324.800 56.819 C 324.800 53.225,324.809 53.192,326.247 51.601 L 327.693 50.000 331.021 50.000 C 336.706 50.000,337.600 49.110,337.600 43.451 C 337.600 38.568,338.568 37.600,343.451 37.600 C 349.078 37.600,350.000 36.693,350.000 31.154 C 350.000 25.085,350.236 25.200,337.809 25.200 L 328.083 25.200 326.841 23.786 C 325.661 22.442,325.600 22.205,325.600 18.973 C 325.600 14.762,324.976 13.079,323.183 12.454 C 321.064 11.715,302.899 11.870,301.482 12.638 M322.320 15.280 C 322.636 15.596,322.800 17.283,322.800 20.212 C 322.800 24.167,322.912 24.884,323.798 26.632 C 324.775 28.557,324.797 28.796,324.798 37.635 L 324.800 46.670 323.216 48.335 L 321.632 50.000 318.363 50.000 C 313.696 50.000,312.400 51.300,312.400 55.981 L 312.400 59.106 310.753 60.753 L 309.106 62.400 299.771 62.400 L 290.436 62.400 290.197 61.100 C 290.065 60.385,290.012 58.180,290.079 56.200 L 290.200 52.600 294.692 52.384 C 302.617 52.004,302.348 52.732,302.377 31.567 C 302.390 22.638,302.520 15.213,302.667 15.067 C 303.175 14.558,321.800 14.760,322.320 15.280 M236.200 52.750 L 237.400 53.006 237.515 56.488 C 237.682 61.530,238.580 62.400,243.617 62.400 C 247.154 62.400,247.181 62.408,248.587 63.813 L 250.000 65.227 250.000 75.000 L 250.000 84.773 248.587 86.187 L 247.173 87.600 237.334 87.600 L 227.494 87.600 226.147 89.028 C 224.832 90.423,224.800 90.539,224.800 93.909 C 224.800 98.983,223.776 100.000,218.669 100.000 L 215.094 100.000 213.747 101.428 L 212.400 102.857 212.400 112.659 L 212.400 122.462 211.231 123.631 C 210.126 124.735,209.877 124.800,206.731 124.803 C 201.319 124.807,200.032 126.049,200.013 131.287 C 199.994 136.410,198.789 137.600,193.617 137.600 C 188.500 137.600,187.600 138.500,187.600 143.617 C 187.600 147.154,187.592 147.181,186.187 148.587 L 184.773 150.000 175.000 150.000 L 165.227 150.000 163.813 148.587 C 162.408 147.181,162.400 147.154,162.400 143.617 C 162.400 138.500,161.500 137.600,156.383 137.600 C 151.211 137.600,150.006 136.410,149.987 131.287 C 149.965 125.056,149.466 124.806,137.069 124.803 L 127.538 124.800 126.369 123.631 C 125.256 122.518,125.200 122.294,125.200 118.984 L 125.200 115.506 123.647 113.953 L 122.094 112.400 112.476 112.400 L 102.857 112.400 101.428 113.747 L 100.000 115.094 100.013 118.647 C 100.032 123.958,101.299 125.193,106.731 125.197 C 111.479 125.201,112.400 126.109,112.400 130.789 C 112.400 137.329,112.919 137.600,125.433 137.600 L 134.906 137.600 136.253 139.028 C 137.573 140.428,137.600 140.528,137.600 143.987 L 137.600 147.517 139.014 148.759 C 140.360 149.940,140.592 150.000,143.854 150.000 C 147.217 150.000,147.305 150.025,148.640 151.360 L 150.000 152.720 150.000 175.000 L 150.000 197.280 148.640 198.640 C 147.305 199.975,147.217 200.000,143.854 200.000 C 140.592 200.000,140.360 200.060,139.014 201.241 L 137.600 202.483 137.600 206.013 C 137.600 211.222,136.458 212.400,131.406 212.400 L 127.906 212.400 126.353 213.953 L 124.800 215.506 124.800 218.984 C 124.800 222.294,124.744 222.518,123.631 223.631 L 122.462 224.800 112.550 224.800 L 102.638 224.800 101.319 223.522 C 100.021 222.263,100.000 222.187,100.000 218.669 L 100.000 215.094 98.572 213.747 L 97.143 212.400 86.172 212.400 L 75.200 212.400 75.197 207.900 C 75.193 201.166,74.252 200.033,68.647 200.013 L 65.094 200.000 63.747 201.428 C 61.803 203.490,61.701 208.804,63.566 210.894 L 64.731 212.200 69.666 212.400 L 74.600 212.600 74.713 217.313 L 74.826 222.026 76.413 223.613 L 78.000 225.200 81.559 225.200 L 85.117 225.200 86.359 226.614 C 87.540 227.960,87.600 228.192,87.600 231.454 C 87.600 236.462,88.748 237.600,93.800 237.600 C 97.224 237.600,97.302 237.622,98.640 238.960 L 100.000 240.320 100.000 256.241 L 100.000 272.162 98.722 273.481 C 97.468 274.775,97.376 274.800,93.950 274.800 C 90.533 274.800,90.426 274.829,89.028 276.147 L 87.600 277.494 87.600 287.334 L 87.600 297.173 86.187 298.587 C 84.787 299.986,84.740 300.000,81.287 300.009 C 74.950 300.025,74.729 300.504,74.830 313.979 C 74.873 319.724,74.783 324.551,74.629 324.705 C 74.474 324.859,72.393 324.929,70.003 324.861 L 65.657 324.737 64.128 326.137 L 62.600 327.537 62.400 338.669 L 62.200 349.800 57.266 350.000 L 52.331 350.200 51.166 351.506 C 49.363 353.526,49.406 358.896,51.241 360.986 L 52.483 362.400 56.211 362.400 C 61.780 362.400,62.335 361.754,62.488 355.081 L 62.600 350.200 67.200 350.098 C 75.271 349.920,75.274 349.914,75.170 336.001 C 75.127 330.267,75.217 325.449,75.371 325.295 C 75.526 325.141,77.627 325.071,80.040 325.140 L 84.429 325.265 86.014 323.680 L 87.600 322.094 87.600 318.594 C 87.600 313.542,88.778 312.400,93.987 312.400 L 97.517 312.400 98.759 310.986 L 100.000 309.572 100.000 299.946 L 100.000 290.320 101.360 288.960 C 102.698 287.622,102.776 287.600,106.200 287.600 C 111.252 287.600,112.400 286.462,112.400 281.454 C 112.400 278.192,112.460 277.960,113.641 276.614 L 114.883 275.200 118.441 275.200 L 122.000 275.200 123.600 273.600 L 125.200 272.000 125.200 268.441 L 125.200 264.883 126.614 263.641 L 128.028 262.400 150.000 262.400 L 171.972 262.400 173.386 263.641 L 174.800 264.883 174.800 268.441 L 174.800 272.000 176.387 273.587 L 177.974 275.174 182.687 275.287 L 187.400 275.400 187.600 280.334 L 187.800 285.269 189.106 286.434 C 191.196 288.299,196.510 288.197,198.572 286.253 L 200.000 284.906 199.987 281.353 C 199.967 275.748,198.834 274.807,192.100 274.803 L 187.600 274.800 187.600 263.828 L 187.600 252.857 186.253 251.428 L 184.906 250.000 168.813 250.000 L 152.720 250.000 151.360 248.640 C 149.277 246.557,149.277 241.043,151.360 238.960 L 152.720 237.600 162.407 237.600 L 172.094 237.600 173.647 236.047 L 175.200 234.494 175.200 224.688 L 175.200 214.883 176.614 213.641 L 178.028 212.400 187.772 212.400 L 197.517 212.400 198.759 210.986 C 199.940 209.640,200.000 209.408,200.000 206.146 C 200.000 202.783,200.025 202.695,201.360 201.360 L 202.720 200.000 231.200 200.000 L 259.680 200.000 261.040 201.360 C 262.378 202.698,262.400 202.776,262.400 206.200 C 262.400 211.252,263.538 212.400,268.546 212.400 C 271.808 212.400,272.040 212.460,273.386 213.641 L 274.800 214.883 274.800 218.441 L 274.800 222.000 276.400 223.600 L 278.000 225.200 281.247 225.200 C 284.486 225.200,284.498 225.196,286.047 223.647 L 287.600 222.094 287.600 212.476 L 287.600 202.857 286.253 201.428 L 284.906 200.000 281.372 200.000 C 276.342 200.000,275.200 198.946,275.200 194.302 C 275.200 188.874,273.996 187.600,268.864 187.600 L 265.506 187.600 263.953 186.047 L 262.400 184.494 262.400 181.136 C 262.400 174.680,262.764 174.800,243.189 174.800 L 227.538 174.800 226.369 173.631 C 225.241 172.503,225.200 172.327,225.200 168.672 L 225.200 164.883 226.614 163.641 C 227.960 162.460,228.192 162.400,231.454 162.400 C 236.462 162.400,237.600 161.252,237.600 156.200 C 237.600 151.131,238.731 150.000,243.800 150.000 C 248.869 150.000,250.000 148.869,250.000 143.800 C 250.000 138.731,251.131 137.600,256.200 137.600 C 261.252 137.600,262.400 136.462,262.400 131.454 C 262.400 128.192,262.460 127.960,263.641 126.614 L 264.883 125.200 268.441 125.200 L 272.000 125.200 273.600 123.600 L 275.200 122.000 275.200 118.441 L 275.200 114.883 276.614 113.641 L 278.028 112.400 287.772 112.400 L 297.517 112.400 298.759 110.986 C 299.940 109.640,300.000 109.408,300.000 106.146 C 300.000 102.783,300.025 102.695,301.360 101.360 L 302.720 100.000 312.441 100.000 L 322.162 100.000 323.481 101.278 C 324.753 102.511,324.800 102.670,324.800 105.698 C 324.800 111.043,326.031 112.400,330.878 112.400 L 333.979 112.400 335.789 114.211 L 337.600 116.021 337.600 131.769 L 337.600 147.517 339.014 148.759 C 340.328 149.912,340.641 150.000,343.445 150.000 L 346.463 150.000 348.232 151.768 L 350.000 153.537 350.000 169.221 L 350.000 184.906 351.428 186.253 C 352.799 187.546,352.983 187.600,355.981 187.600 L 359.106 187.600 360.753 189.247 L 362.400 190.894 362.400 200.000 L 362.400 209.106 360.753 210.753 L 359.106 212.400 355.981 212.400 C 352.983 212.400,352.799 212.454,351.428 213.747 L 350.000 215.094 350.000 237.280 L 350.000 259.465 349.044 259.976 C 348.518 260.258,347.858 260.918,347.576 261.444 C 347.099 262.336,346.839 262.400,343.692 262.400 C 340.390 262.400,340.292 262.428,338.960 263.760 L 337.600 265.120 337.600 274.549 L 337.600 283.979 335.789 285.789 L 333.979 287.600 324.549 287.600 L 315.120 287.600 313.760 288.960 C 312.428 290.292,312.400 290.390,312.400 293.692 C 312.400 296.839,312.336 297.099,311.444 297.576 C 310.918 297.858,310.258 298.518,309.976 299.044 C 309.504 299.926,309.225 300.000,306.356 300.000 C 302.526 300.000,302.688 300.252,302.386 293.800 C 302.017 285.937,301.672 285.547,294.800 285.219 L 290.200 285.000 289.964 280.600 C 289.522 272.368,290.717 272.800,268.400 272.800 C 250.846 272.800,249.121 272.921,247.569 274.257 C 247.149 274.618,245.850 274.800,243.697 274.800 C 238.896 274.800,237.600 276.062,237.600 280.737 L 237.600 283.979 235.789 285.789 L 233.979 287.600 230.737 287.600 C 226.105 287.600,224.800 288.911,224.800 293.563 C 224.800 296.635,224.782 296.688,223.216 298.335 L 221.632 300.000 218.363 300.000 C 213.696 300.000,212.400 301.300,212.400 305.981 L 212.400 309.106 210.753 310.753 L 209.106 312.400 205.981 312.400 C 202.983 312.400,202.799 312.454,201.428 313.747 L 200.000 315.094 200.000 331.187 L 200.000 347.280 201.360 348.640 C 202.692 349.972,202.790 350.000,206.092 350.000 C 209.239 350.000,209.499 350.064,209.976 350.956 C 210.258 351.482,210.918 352.142,211.444 352.424 L 212.400 352.935 212.400 362.421 C 212.400 371.892,212.399 371.907,211.500 372.241 C 211.005 372.425,191.389 372.671,167.909 372.788 L 125.218 373.000 124.109 374.108 C 123.049 375.167,122.994 375.417,122.863 379.708 C 122.788 382.179,122.541 384.425,122.314 384.700 C 121.725 385.415,28.395 385.435,27.680 384.720 C 27.322 384.362,27.200 380.077,27.200 367.907 C 27.200 346.881,27.651 348.053,19.400 347.627 L 15.000 347.400 15.000 293.800 L 15.000 240.200 19.400 239.964 C 24.482 239.691,26.085 239.079,26.757 237.152 C 27.068 236.259,27.200 225.448,27.200 200.820 C 27.200 174.085,27.314 165.646,27.680 165.280 C 27.985 164.975,29.523 164.800,31.893 164.800 C 39.615 164.800,39.741 164.583,40.000 150.819 L 40.200 140.200 44.400 139.958 C 52.332 139.502,52.141 139.839,52.400 125.819 L 52.600 115.000 57.200 114.794 C 64.802 114.454,64.542 114.926,64.800 101.000 L 65.000 90.200 75.600 90.000 C 89.627 89.735,89.584 89.759,89.915 82.000 C 90.126 77.034,89.945 77.214,94.713 77.206 C 101.293 77.195,102.008 76.466,102.373 69.400 L 102.600 65.000 119.600 64.800 C 140.597 64.553,139.586 64.918,139.891 57.476 C 139.983 55.234,140.129 53.175,140.216 52.900 C 140.386 52.364,233.704 52.219,236.200 52.750 " stroke="none" fill="#3ca424" fill-rule="evenodd"></path><path id="path2" d="M296.800 4.600 L 296.800 9.200 293.059 9.200 C 291.001 9.200,288.211 9.316,286.859 9.457 L 284.400 9.714 284.400 28.257 L 284.400 46.800 281.210 46.800 L 278.021 46.800 277.910 40.700 L 277.800 34.600 206.200 34.600 L 134.600 34.600 134.490 40.700 L 134.379 46.800 116.070 46.800 C 102.362 46.800,97.639 46.921,97.280 47.280 C 96.951 47.609,96.800 49.564,96.800 53.480 L 96.800 59.200 93.059 59.200 C 91.001 59.200,88.211 59.316,86.859 59.457 L 84.400 59.714 84.400 65.857 L 84.400 72.000 72.056 72.000 L 59.711 72.000 59.459 74.100 C 59.320 75.255,59.205 78.040,59.203 80.290 L 59.200 84.379 53.100 84.490 L 47.000 84.600 46.894 96.900 L 46.788 109.200 43.053 109.200 C 40.998 109.200,38.211 109.316,36.859 109.457 L 34.400 109.714 34.400 122.047 L 34.400 134.379 28.300 134.490 L 22.200 134.600 22.094 146.846 L 21.989 159.092 15.989 159.284 C 12.690 159.390,9.857 159.609,9.695 159.772 C 9.533 159.934,9.349 176.791,9.286 197.233 L 9.172 234.400 4.586 234.400 L 0.000 234.400 0.000 293.800 L 0.000 353.200 4.600 353.200 L 9.200 353.200 9.200 376.600 L 9.200 400.000 68.600 400.000 L 128.000 400.000 128.000 395.400 L 128.000 390.800 175.900 390.797 C 202.245 390.795,224.745 390.680,225.900 390.541 L 228.000 390.289 228.000 384.144 L 228.000 378.000 234.144 378.000 L 240.289 378.000 240.541 375.900 C 240.874 373.127,240.817 351.105,240.470 348.800 L 240.200 347.000 234.100 346.890 L 228.000 346.779 228.000 331.190 L 228.000 315.600 234.143 315.600 L 240.286 315.600 240.543 313.141 C 240.684 311.789,240.800 308.999,240.800 306.941 L 240.800 303.200 246.520 303.200 C 253.662 303.200,253.200 303.662,253.200 296.520 L 253.200 290.800 268.794 290.800 L 284.388 290.800 284.494 303.100 L 284.600 315.400 290.690 315.510 L 296.779 315.621 296.890 321.710 L 297.000 327.800 306.200 327.800 L 315.400 327.800 315.510 321.700 L 315.621 315.600 327.953 315.600 L 340.286 315.600 340.543 313.141 C 340.684 311.789,340.800 308.999,340.800 306.941 L 340.800 303.200 346.520 303.200 C 353.662 303.200,353.200 303.662,353.200 296.520 L 353.200 290.800 356.941 290.800 C 358.999 290.800,361.789 290.684,363.141 290.543 L 365.600 290.286 365.600 277.953 L 365.600 265.621 371.700 265.510 L 377.800 265.400 377.903 240.500 L 378.006 215.600 384.146 215.600 L 390.286 215.600 390.543 213.141 C 390.684 211.789,390.800 205.875,390.800 200.000 C 390.800 194.125,390.684 188.211,390.543 186.859 L 390.286 184.400 384.147 184.400 L 378.008 184.400 377.904 165.700 L 377.800 147.000 371.700 146.890 L 365.600 146.779 365.600 128.247 L 365.600 109.714 363.141 109.457 C 361.789 109.316,359.002 109.200,356.947 109.200 L 353.212 109.200 353.106 96.900 L 353.000 84.600 346.900 84.490 L 340.800 84.379 340.800 80.648 C 340.800 78.596,340.684 75.811,340.543 74.459 L 340.286 72.000 334.143 72.000 L 328.000 72.000 328.000 68.800 L 328.000 65.600 334.143 65.600 L 340.286 65.600 340.543 63.141 C 340.684 61.789,340.800 58.999,340.800 56.941 L 340.800 53.200 346.520 53.200 C 353.662 53.200,353.200 53.662,353.200 46.520 L 353.200 40.800 356.941 40.800 C 358.999 40.800,361.792 40.684,363.149 40.542 L 365.615 40.284 365.507 31.242 L 365.400 22.200 359.310 22.090 L 353.221 21.979 353.110 15.890 L 353.000 9.800 351.200 9.530 C 350.210 9.381,344.585 9.246,338.700 9.230 L 328.000 9.200 328.000 4.600 L 328.000 0.000 312.400 0.000 L 296.800 0.000 296.800 4.600 M323.183 12.454 C 324.976 13.079,325.600 14.762,325.600 18.973 C 325.600 22.205,325.661 22.442,326.841 23.786 L 328.083 25.200 337.809 25.200 C 350.236 25.200,350.000 25.085,350.000 31.154 C 350.000 36.693,349.078 37.600,343.451 37.600 C 338.568 37.600,337.600 38.568,337.600 43.451 C 337.600 49.110,336.706 50.000,331.021 50.000 L 327.693 50.000 326.247 51.601 C 324.809 53.192,324.800 53.225,324.800 56.819 C 324.800 61.896,324.288 62.400,319.135 62.400 L 315.434 62.400 313.917 63.881 L 312.400 65.362 312.400 68.728 L 312.400 72.094 313.953 73.647 L 315.506 75.200 319.171 75.200 C 324.294 75.200,324.800 75.706,324.800 80.829 L 324.800 84.494 326.353 86.047 L 327.906 87.600 331.531 87.600 C 334.785 87.600,335.270 87.699,336.278 88.565 L 337.400 89.529 337.520 99.665 L 337.639 109.800 338.898 111.100 C 340.121 112.362,340.253 112.400,343.498 112.400 C 350.215 112.400,350.000 111.771,350.000 131.466 L 350.000 147.280 351.360 148.640 C 352.709 149.989,352.750 150.000,356.391 150.000 C 359.915 150.000,360.108 150.047,361.231 151.169 L 362.400 152.338 362.400 168.452 L 362.400 184.566 363.881 186.083 L 365.362 187.600 369.099 187.600 C 372.534 187.600,372.916 187.680,373.818 188.582 L 374.800 189.564 374.800 200.000 L 374.800 210.436 373.818 211.418 C 372.916 212.320,372.534 212.400,369.099 212.400 L 365.362 212.400 363.891 213.907 L 362.420 215.414 362.310 238.093 C 362.180 264.805,362.792 262.130,356.762 262.338 C 352.799 262.475,352.733 262.493,351.375 263.852 L 350.000 265.227 350.000 274.787 C 350.000 287.395,349.897 287.600,343.539 287.600 C 338.706 287.600,337.600 288.698,337.600 293.498 C 337.600 299.903,337.408 300.000,324.787 300.000 L 315.227 300.000 313.852 301.375 C 312.493 302.733,312.475 302.799,312.338 306.762 C 312.155 312.088,312.084 312.157,306.592 312.336 C 302.436 312.472,302.404 312.466,301.253 311.314 L 300.095 310.156 299.797 300.242 C 299.422 287.741,299.714 288.299,293.394 287.992 C 287.648 287.712,287.200 287.266,287.200 281.820 C 287.200 278.250,287.149 278.030,286.040 276.842 L 284.879 275.600 268.777 275.600 L 252.676 275.600 251.338 276.620 C 250.008 277.634,250.000 277.661,250.000 280.994 C 250.000 286.686,249.106 287.600,243.539 287.600 C 238.706 287.600,237.600 288.698,237.600 293.498 C 237.600 299.105,236.694 300.000,231.021 300.000 L 227.693 300.000 226.247 301.601 C 224.809 303.192,224.800 303.225,224.800 306.819 C 224.800 311.896,224.288 312.400,219.135 312.400 L 215.434 312.400 213.917 313.881 L 212.400 315.362 212.400 331.268 L 212.400 347.173 213.813 348.587 C 215.210 349.983,215.267 350.000,218.633 350.000 C 222.178 350.000,224.078 350.584,224.552 351.818 C 225.257 353.657,224.808 372.701,224.037 373.656 C 222.867 375.103,219.393 375.220,171.135 375.441 L 127.670 375.639 126.635 376.674 C 125.686 377.623,125.600 377.988,125.600 381.067 C 125.600 385.235,124.971 386.923,123.183 387.546 C 120.399 388.516,28.142 388.155,26.756 387.168 C 24.397 385.489,24.400 385.511,24.400 368.255 L 24.400 352.471 23.169 351.436 C 22.060 350.502,21.609 350.400,18.595 350.400 C 11.221 350.400,11.973 357.015,12.096 293.177 L 12.200 239.131 13.322 238.165 C 14.335 237.294,14.808 237.200,18.180 237.200 C 21.750 237.200,21.970 237.149,23.158 236.040 L 24.400 234.879 24.400 200.299 C 24.400 158.678,23.804 162.000,31.268 162.000 C 34.431 162.000,34.614 161.949,35.881 160.722 L 37.200 159.443 37.200 149.303 L 37.200 139.164 38.182 138.182 C 39.087 137.277,39.462 137.200,42.968 137.200 C 46.653 137.200,46.817 137.161,48.186 135.959 L 49.600 134.717 49.600 124.985 C 49.600 112.105,49.654 112.000,56.305 112.000 C 59.651 112.000,59.910 111.938,60.905 110.899 L 61.960 109.798 62.080 99.464 L 62.200 89.130 63.322 88.165 C 64.444 87.201,64.451 87.200,74.462 87.200 L 84.480 87.200 85.840 85.840 C 87.189 84.491,87.200 84.450,87.200 80.814 C 87.200 75.246,88.117 74.400,94.152 74.400 C 98.801 74.400,99.600 73.549,99.600 68.595 C 99.600 61.706,98.751 62.000,118.661 62.000 L 134.562 62.000 135.881 60.722 C 137.193 59.450,137.200 59.422,137.200 55.597 C 137.200 51.364,137.692 50.293,139.890 49.742 C 142.393 49.113,271.850 49.902,273.110 50.554 C 274.664 51.357,274.800 51.795,274.800 56.004 C 274.800 59.473,274.827 59.571,276.147 60.972 L 277.494 62.400 281.047 62.387 C 286.316 62.368,287.193 61.404,287.213 55.611 C 287.231 50.224,287.879 49.600,293.455 49.600 C 296.858 49.600,297.001 49.562,298.281 48.322 L 299.600 47.043 299.600 31.148 C 299.600 14.352,299.675 13.618,301.482 12.638 C 302.899 11.870,321.064 11.715,323.183 12.454 " stroke="none" fill="#040404" fill-rule="evenodd"></path></g></svg>